<svg width="402" height="874" viewBox="0 0 402 874" fill="none" xmlns="http://www.w3.org/2000/svg">
<path d="M334.085 86.3717C315.612 110.574 301.972 137.813 298.482 168.345C295.688 192.818 299.574 217.537 307.314 240.794C321.609 283.717 347.676 322.096 374.851 357.846C404.158 396.399 436.21 432.763 467.101 470.032C524.759 539.589 600.772 629.688 576.282 726.913C377.472 726.913 178.666 726.913 -20.1448 726.913C-83.1892 726.913 -146.238 726.913 -209.282 726.913C-233.772 629.688 -157.759 539.589 -100.101 470.032C-69.2095 432.763 -37.1575 396.399 -7.85137 357.846C19.3237 322.096 45.3907 283.717 59.6859 240.794C67.4299 217.541 71.3161 192.818 68.5177 168.345C65.0278 137.813 51.3918 110.574 32.9152 86.3718L334.081 86.3717L334.085 86.3717ZM567.653 750.638C562.533 761.354 556.544 771.347 549.702 781.049C364.248 781.049 178.795 781.049 -6.65839 781.049C-65.3395 781.049 -124.021 781.049 -182.702 781.049C-189.544 771.343 -195.533 761.354 -200.652 750.638C-139.169 750.638 -77.6855 750.638 -16.202 750.638C178.415 750.638 373.036 750.638 567.653 750.638ZM522.215 812.545C512.17 822.187 501.62 831.153 490.624 839.696C335.136 839.696 179.648 839.696 24.1602 839.696C-25.0986 839.696 -74.3573 839.696 -123.616 839.696C-134.611 831.153 -145.158 822.183 -155.207 812.545C-100.691 812.545 -46.1754 812.545 8.34045 812.545C179.632 812.545 350.924 812.545 522.215 812.545ZM399.143 26.1854C384.743 36.6628 370.989 47.7985 358.057 60.049L8.947 60.0491C-3.98134 47.7985 -17.7347 36.6628 -32.135 26.1854L399.143 26.1854ZM183.502 0.00407198L22.1504 0.00407903C55.3993 31.8078 84.3011 68.6523 99.5547 112.521C110.493 143.985 113.632 177.497 110.218 210.553C104.424 266.721 81.717 319.838 56.936 370C31.5646 421.357 2.68706 470.932 -21.7017 522.786C-45.7629 573.945 -66.5041 628.945 -67.2482 686.167C-68.2187 760.668 -30.4567 823.673 22.1504 874C75.9343 874 129.718 874 183.502 874C183.502 652.485 183.502 430.97 183.502 209.459C183.502 139.643 183.502 69.8276 183.502 0.00816134L183.502 0.00407198ZM273.564 0.00406804C236.182 64.1608 220.249 135.592 224.349 209.527C230.351 317.831 271.267 420.218 298.414 524.196C312.292 577.354 323.174 631.813 323.478 686.942C323.842 753.195 306.942 816.714 273.568 873.996L388.233 873.996C448.782 828.395 502.606 766.948 501.688 687.104C501.017 628.674 474.081 573.723 444.884 524.486C413.64 471.797 377.075 422.516 344.51 370.662C313.756 321.696 283.997 268.356 276.435 210.153C271.999 176.011 276.754 141.437 291.118 110.073C311.876 64.7506 348.978 29.562 388.229 3.47109e-05L273.564 3.97231e-05M426.067 0.00406138L409.754 0.00406209C339.144 48.0974 273.936 116.406 285.922 208.11C293.759 268.078 327.825 322.254 361.644 370.965C397.416 422.488 437.269 471.114 471.747 523.545C503.27 571.481 533.522 625.92 535.095 684.688C537.335 768.451 474.255 830.067 409.754 873.996L426.067 873.996C492.468 831.828 562.557 771.016 560.462 685.371C559.015 626.166 526.425 571.792 493.338 524.696C455.689 471.106 412.253 421.898 373.262 369.313C338.379 322.27 302.858 269.677 293.678 210.61C278.902 115.502 352.497 46.7322 426.067 0.00815073L426.067 0.00406138ZM-19.421 0.00408085L-35.908 0.00408157C5.98281 29.4288 46.6483 64.8879 69.0556 111.907C83.6258 142.487 88.5229 176.261 83.9614 209.757C75.9504 268.599 43.6963 321.963 11.1307 370.392C-23.8045 422.35 -62.8969 471.449 -96.5099 524.305C-127.413 572.903 -156.804 628 -157.504 687.003C-158.471 768.875 -98.7946 829.821 -35.9079 873.996L-19.4209 873.996C-79.8975 828.043 -133.099 766.258 -131.87 686.34C-130.968 627.717 -103.983 572.58 -74.7617 523.105C-43.555 470.262 -7.09919 420.763 25.1954 368.602C55.3629 319.875 84.4265 266.814 91.5194 209.079C95.6483 175.454 91.0018 141.497 77.0504 110.542C56.568 65.106 19.6997 29.7277 -19.4169 0.00408085L-19.421 0.00408085Z" fill="#A296FF"/>
</svg>
