<svg width="1512" height="982" viewBox="0 0 1512 982" fill="none" xmlns="http://www.w3.org/2000/svg">
<path d="M1362.58 690.256C1320.71 658.33 1273.59 634.756 1220.77 628.724C1178.43 623.895 1135.67 630.611 1095.43 643.988C1021.18 668.695 954.781 713.746 892.934 760.713C826.238 811.363 763.33 866.758 698.856 920.148C578.524 1019.8 422.654 1151.17 254.457 1108.85C254.457 765.242 254.457 421.645 254.457 78.0403C254.457 -30.9195 254.457 -139.886 254.457 -248.846C422.654 -291.172 578.524 -159.798 698.856 -60.1479C763.33 -6.75826 826.238 48.6372 892.934 99.2871C954.781 146.254 1021.18 191.305 1095.43 216.012C1135.66 229.396 1178.43 236.112 1220.77 231.276C1273.59 225.244 1320.71 201.677 1362.58 169.744V690.249V690.256ZM213.413 1093.93C194.875 1085.08 177.588 1074.73 160.804 1062.91C160.804 742.388 160.804 421.868 160.804 101.349C160.804 -0.0697021 160.804 -101.488 160.804 -202.907C177.595 -214.732 194.875 -225.083 213.413 -233.931C213.413 -127.669 213.413 -21.4074 213.413 84.8546C213.413 421.211 213.413 757.575 213.413 1093.93ZM106.315 1015.4C89.6358 998.041 74.1235 979.807 59.3449 960.803C59.3449 692.073 59.3449 423.343 59.3449 154.613C59.3449 69.4787 59.3449 -15.6554 59.3449 -100.789C74.1235 -119.793 89.6428 -138.02 106.315 -155.388C106.315 -61.1683 106.315 33.0516 106.315 127.271C106.315 423.315 106.315 719.359 106.315 1015.4ZM1466.7 802.696C1448.57 777.808 1429.31 754.038 1408.12 731.687V128.32C1429.31 105.976 1448.57 82.2058 1466.7 57.3177V802.696ZM1511.99 430.004V151.139C1456.97 208.603 1393.23 258.554 1317.34 284.917C1262.91 303.823 1204.93 309.246 1147.75 303.347C1050.58 293.332 958.687 254.088 871.909 211.259C783.063 167.41 697.298 117.501 607.592 75.3495C519.088 33.7644 423.939 -2.08255 324.947 -3.36855C196.063 -5.04591 87.0644 60.2182 0 151.139C0 244.094 0 337.049 0 430.004C383.216 430.004 766.432 430.004 1149.64 430.004C1270.42 430.004 1391.2 430.004 1511.99 430.004H1511.99ZM1511.99 585.657C1401 521.05 1277.43 493.513 1149.52 500.6C962.16 510.972 785.033 581.688 605.154 628.605C513.191 652.592 418.978 671.399 323.606 671.924C208.99 672.553 99.1039 643.345 0.00698751 585.664L0.00698751 783.84C78.896 888.487 185.197 981.512 323.326 979.926C424.408 978.765 519.473 932.211 604.65 881.75C695.803 827.752 781.057 764.557 870.763 708.274C955.473 655.122 1047.75 603.689 1148.44 590.62C1207.51 582.953 1267.32 591.172 1321.58 615.997C1399.98 651.872 1460.86 715.997 1512 783.833V585.657M1511.99 849.23V821.036C1428.79 698.999 1310.62 586.3 1151.98 607.016C1048.23 620.561 954.508 679.437 870.239 737.887C781.106 799.712 696.983 868.589 606.279 928.178C523.351 982.658 429.173 1034.94 327.505 1037.66C182.598 1041.53 76.0032 932.511 0.00698751 821.036L0.00698751 849.23C72.9566 963.99 178.161 1085.13 326.324 1081.5C428.747 1079 522.813 1022.68 604.287 965.493C696.997 900.425 782.126 825.355 873.097 757.966C954.48 697.678 1045.46 636.286 1147.65 620.421C1312.19 594.883 1431.15 722.077 1511.99 849.23H1511.99ZM1511.99 79.2913V50.7968C1461.09 123.197 1399.75 193.479 1318.4 232.206C1265.5 257.387 1207.07 265.851 1149.12 257.967C1047.33 244.122 955.011 188.377 871.231 132.094C781.344 71.7152 696.404 4.1517 604.965 -53.9416C520.891 -107.352 425.574 -158.149 323.501 -159.358C181.864 -161.028 76.4294 -57.8904 0.00698751 50.7968L0.00698751 79.2913C79.5039 -25.2304 186.392 -117.179 324.647 -115.054C426.064 -113.496 521.45 -66.8574 607.04 -16.3543C698.458 37.5805 784.09 100.587 874.327 156.402C958.624 208.54 1050.42 258.771 1150.3 271.03C1208.47 278.166 1267.21 270.135 1320.77 246.023C1399.37 210.623 1460.57 146.904 1511.99 79.2983V79.2913Z" fill="#A296FF"/>
</svg>
